# xmcd
#
# Track frame offsets: 
#        150
#        23322
#        47945
#        69114
#        92499
#        110803
#        130806
#        148942
#        174319
#        201552
#        224371
#        241521
#
# Disc length: 3513 seconds
#
# Revision: 0
# Processed by: cddbd v1.5.2PL0 Copyright (c) Steve Scherf et al.
# Submitted via: ExactAudioCopyFreeDBPlugin 1.0
#
DISCID=a50db70c
DTITLE=上原れな - The Brilliant Best～タイアップコレクション～ DISC-2
DYEAR=2013
DGENRE=JPop
TTITLE0=届かない恋
TTITLE1=After All ～綴る想い～
TTITLE2=トキメキ
TTITLE3=旅立ち
TTITLE4=虹色の風
TTITLE5=my friend
TTITLE6=幸せな記憶
TTITLE7=優しい嘘
TTITLE8=closing
TTITLE9=ただひとつの星
TTITLE10=Sparkling Heart
TTITLE11=Answer
EXTD=
EXTT0=
EXTT1=
EXTT2=
EXTT3=
EXTT4=
EXTT5=
EXTT6=
EXTT7=
EXTT8=
EXTT9=
EXTT10=
EXTT11=
PLAYORDER=
